<svg width="305" height="293" viewBox="0 0 305 293" fill="none" xmlns="http://www.w3.org/2000/svg">
<g filter="url(#filter0_d_120_422)">
<rect x="4" width="297" height="285" rx="10" fill="#8A70D6" fill-opacity="0.5" shape-rendering="crispEdges"/>
<rect x="24" y="13" width="256" height="108" rx="10" fill="#8A70D6"/>
<path d="M28.18 139.04V153H25.38V139.04H28.18ZM40.4464 139.04V141.3H36.7264V153H33.9264V141.3H30.2064V139.04H40.4464ZM50.055 141.3V144.8H54.755V147.02H50.055V150.72H55.355V153H47.255V139.02H55.355V141.3H50.055ZM60.6995 150.78H65.2995V153H57.8995V139.04H60.6995V150.78ZM69.8792 141.3V144.8H74.5792V147.02H69.8792V150.72H75.1792V153H67.0792V139.02H75.1792V141.3H69.8792ZM77.0438 146C77.0438 144.627 77.3504 143.4 77.9638 142.32C78.5904 141.227 79.4371 140.38 80.5038 139.78C81.5838 139.167 82.7904 138.86 84.1238 138.86C85.6838 138.86 87.0504 139.26 88.2238 140.06C89.3971 140.86 90.2171 141.967 90.6838 143.38H87.4638C87.1438 142.713 86.6904 142.213 86.1038 141.88C85.5304 141.547 84.8638 141.38 84.1038 141.38C83.2904 141.38 82.5638 141.573 81.9238 141.96C81.2971 142.333 80.8038 142.867 80.4438 143.56C80.0971 144.253 79.9238 145.067 79.9238 146C79.9238 146.92 80.0971 147.733 80.4438 148.44C80.8038 149.133 81.2971 149.673 81.9238 150.06C82.5638 150.433 83.2904 150.62 84.1038 150.62C84.8638 150.62 85.5304 150.453 86.1038 150.12C86.6904 149.773 87.1438 149.267 87.4638 148.6H90.6838C90.2171 150.027 89.3971 151.14 88.2238 151.94C87.0638 152.727 85.6971 153.12 84.1238 153.12C82.7904 153.12 81.5838 152.82 80.5038 152.22C79.4371 151.607 78.5904 150.76 77.9638 149.68C77.3504 148.6 77.0438 147.373 77.0438 146ZM98.4009 149.84C99.6809 148.773 100.701 147.887 101.461 147.18C102.221 146.46 102.854 145.713 103.361 144.94C103.868 144.167 104.121 143.407 104.121 142.66C104.121 141.98 103.961 141.447 103.641 141.06C103.321 140.673 102.828 140.48 102.161 140.48C101.494 140.48 100.981 140.707 100.621 141.16C100.261 141.6 100.074 142.207 100.061 142.98H97.3409C97.3943 141.38 97.8676 140.167 98.7609 139.34C99.6676 138.513 100.814 138.1 102.201 138.1C103.721 138.1 104.888 138.507 105.701 139.32C106.514 140.12 106.921 141.18 106.921 142.5C106.921 143.54 106.641 144.533 106.081 145.48C105.521 146.427 104.881 147.253 104.161 147.96C103.441 148.653 102.501 149.493 101.341 150.48H107.241V152.8H97.3609V150.72L98.4009 149.84Z" fill="#424040"/>
<path d="M24.54 162.5V161.252H27.036V170H25.656V162.5H24.54ZM34.5553 162.428H30.5353V164.816C30.7033 164.592 30.9513 164.404 31.2793 164.252C31.6153 164.1 31.9713 164.024 32.3473 164.024C33.0193 164.024 33.5633 164.168 33.9793 164.456C34.4033 164.744 34.7033 165.108 34.8793 165.548C35.0633 165.988 35.1553 166.452 35.1553 166.94C35.1553 167.532 35.0393 168.06 34.8073 168.524C34.5833 168.98 34.2433 169.34 33.7873 169.604C33.3393 169.868 32.7873 170 32.1313 170C31.2593 170 30.5593 169.784 30.0313 169.352C29.5033 168.92 29.1873 168.348 29.0833 167.636H30.4153C30.5033 168.012 30.6993 168.312 31.0033 168.536C31.3073 168.752 31.6873 168.86 32.1433 168.86C32.7113 168.86 33.1353 168.688 33.4153 168.344C33.7033 168 33.8473 167.544 33.8473 166.976C33.8473 166.4 33.7033 165.96 33.4153 165.656C33.1273 165.344 32.7033 165.188 32.1433 165.188C31.7513 165.188 31.4193 165.288 31.1473 165.488C30.8833 165.68 30.6913 165.944 30.5713 166.28H29.2753V161.228H34.5553V162.428ZM41.2446 168.896H44.0646V170H39.8766V161.66H41.2446V168.896ZM51.2686 166.532C51.2686 166.78 51.2526 167.004 51.2206 167.204H46.1686C46.2086 167.732 46.4046 168.156 46.7566 168.476C47.1086 168.796 47.5406 168.956 48.0526 168.956C48.7886 168.956 49.3086 168.648 49.6126 168.032H51.0886C50.8886 168.64 50.5246 169.14 49.9966 169.532C49.4766 169.916 48.8286 170.108 48.0526 170.108C47.4206 170.108 46.8526 169.968 46.3486 169.688C45.8526 169.4 45.4606 169 45.1726 168.488C44.8926 167.968 44.7526 167.368 44.7526 166.688C44.7526 166.008 44.8886 165.412 45.1606 164.9C45.4406 164.38 45.8286 163.98 46.3246 163.7C46.8286 163.42 47.4046 163.28 48.0526 163.28C48.6766 163.28 49.2326 163.416 49.7206 163.688C50.2086 163.96 50.5886 164.344 50.8606 164.84C51.1326 165.328 51.2686 165.892 51.2686 166.532ZM49.8406 166.1C49.8326 165.596 49.6526 165.192 49.3006 164.888C48.9486 164.584 48.5126 164.432 47.9926 164.432C47.5206 164.432 47.1166 164.584 46.7806 164.888C46.4446 165.184 46.2446 165.588 46.1806 166.1H49.8406ZM55.0148 170.108C54.4948 170.108 54.0268 170.016 53.6108 169.832C53.2028 169.64 52.8788 169.384 52.6388 169.064C52.3988 168.736 52.2708 168.372 52.2548 167.972H53.6708C53.6948 168.252 53.8268 168.488 54.0668 168.68C54.3148 168.864 54.6228 168.956 54.9908 168.956C55.3748 168.956 55.6708 168.884 55.8788 168.74C56.0948 168.588 56.2028 168.396 56.2028 168.164C56.2028 167.916 56.0828 167.732 55.8428 167.612C55.6108 167.492 55.2388 167.36 54.7268 167.216C54.2308 167.08 53.8268 166.948 53.5148 166.82C53.2028 166.692 52.9308 166.496 52.6988 166.232C52.4748 165.968 52.3628 165.62 52.3628 165.188C52.3628 164.836 52.4668 164.516 52.6748 164.228C52.8828 163.932 53.1788 163.7 53.5628 163.532C53.9548 163.364 54.4028 163.28 54.9068 163.28C55.6588 163.28 56.2628 163.472 56.7188 163.856C57.1828 164.232 57.4308 164.748 57.4628 165.404H56.0948C56.0708 165.108 55.9508 164.872 55.7348 164.696C55.5188 164.52 55.2268 164.432 54.8588 164.432C54.4988 164.432 54.2228 164.5 54.0308 164.636C53.8388 164.772 53.7428 164.952 53.7428 165.176C53.7428 165.352 53.8068 165.5 53.9348 165.62C54.0628 165.74 54.2188 165.836 54.4028 165.908C54.5868 165.972 54.8588 166.056 55.2188 166.16C55.6988 166.288 56.0908 166.42 56.3948 166.556C56.7068 166.684 56.9748 166.876 57.1988 167.132C57.4228 167.388 57.5388 167.728 57.5468 168.152C57.5468 168.528 57.4428 168.864 57.2348 169.16C57.0268 169.456 56.7308 169.688 56.3468 169.856C55.9708 170.024 55.5268 170.108 55.0148 170.108ZM61.425 170.108C60.905 170.108 60.437 170.016 60.021 169.832C59.613 169.64 59.289 169.384 59.049 169.064C58.809 168.736 58.681 168.372 58.665 167.972H60.081C60.105 168.252 60.237 168.488 60.477 168.68C60.725 168.864 61.033 168.956 61.401 168.956C61.785 168.956 62.081 168.884 62.289 168.74C62.505 168.588 62.613 168.396 62.613 168.164C62.613 167.916 62.493 167.732 62.253 167.612C62.021 167.492 61.649 167.36 61.137 167.216C60.641 167.08 60.237 166.948 59.925 166.82C59.613 166.692 59.341 166.496 59.109 166.232C58.885 165.968 58.773 165.62 58.773 165.188C58.773 164.836 58.877 164.516 59.085 164.228C59.293 163.932 59.589 163.7 59.973 163.532C60.365 163.364 60.813 163.28 61.317 163.28C62.069 163.28 62.673 163.472 63.129 163.856C63.593 164.232 63.841 164.748 63.873 165.404H62.505C62.481 165.108 62.361 164.872 62.145 164.696C61.929 164.52 61.637 164.432 61.269 164.432C60.909 164.432 60.633 164.5 60.441 164.636C60.249 164.772 60.153 164.952 60.153 165.176C60.153 165.352 60.217 165.5 60.345 165.62C60.473 165.74 60.629 165.836 60.813 165.908C60.997 165.972 61.269 166.056 61.629 166.16C62.109 166.288 62.501 166.42 62.805 166.556C63.117 166.684 63.385 166.876 63.609 167.132C63.833 167.388 63.949 167.728 63.957 168.152C63.957 168.528 63.853 168.864 63.645 169.16C63.437 169.456 63.141 169.688 62.757 169.856C62.381 170.024 61.937 170.108 61.425 170.108ZM68.3032 170.108C67.6792 170.108 67.1152 169.968 66.6112 169.688C66.1072 169.4 65.7112 169 65.4232 168.488C65.1352 167.968 64.9912 167.368 64.9912 166.688C64.9912 166.016 65.1392 165.42 65.4352 164.9C65.7312 164.38 66.1352 163.98 66.6472 163.7C67.1592 163.42 67.7312 163.28 68.3632 163.28C68.9952 163.28 69.5672 163.42 70.0792 163.7C70.5912 163.98 70.9952 164.38 71.2912 164.9C71.5872 165.42 71.7352 166.016 71.7352 166.688C71.7352 167.36 71.5832 167.956 71.2792 168.476C70.9752 168.996 70.5592 169.4 70.0312 169.688C69.5112 169.968 68.9352 170.108 68.3032 170.108ZM68.3032 168.92C68.6552 168.92 68.9832 168.836 69.2872 168.668C69.5992 168.5 69.8512 168.248 70.0432 167.912C70.2352 167.576 70.3312 167.168 70.3312 166.688C70.3312 166.208 70.2392 165.804 70.0552 165.476C69.8712 165.14 69.6272 164.888 69.3232 164.72C69.0192 164.552 68.6912 164.468 68.3392 164.468C67.9872 164.468 67.6592 164.552 67.3552 164.72C67.0592 164.888 66.8232 165.14 66.6472 165.476C66.4712 165.804 66.3832 166.208 66.3832 166.688C66.3832 167.4 66.5632 167.952 66.9232 168.344C67.2912 168.728 67.7512 168.92 68.3032 168.92ZM76.4235 163.28C76.9435 163.28 77.4075 163.388 77.8155 163.604C78.2315 163.82 78.5555 164.14 78.7875 164.564C79.0195 164.988 79.1355 165.5 79.1355 166.1V170H77.7795V166.304C77.7795 165.712 77.6315 165.26 77.3355 164.948C77.0395 164.628 76.6355 164.468 76.1235 164.468C75.6115 164.468 75.2035 164.628 74.8995 164.948C74.6035 165.26 74.4555 165.712 74.4555 166.304V170H73.0875V163.388H74.4555V164.144C74.6795 163.872 74.9635 163.66 75.3075 163.508C75.6595 163.356 76.0315 163.28 76.4235 163.28ZM83.2805 170.108C82.7605 170.108 82.2925 170.016 81.8765 169.832C81.4685 169.64 81.1445 169.384 80.9045 169.064C80.6645 168.736 80.5365 168.372 80.5205 167.972H81.9365C81.9605 168.252 82.0925 168.488 82.3325 168.68C82.5805 168.864 82.8885 168.956 83.2565 168.956C83.6405 168.956 83.9365 168.884 84.1445 168.74C84.3605 168.588 84.4685 168.396 84.4685 168.164C84.4685 167.916 84.3485 167.732 84.1085 167.612C83.8765 167.492 83.5045 167.36 82.9925 167.216C82.4965 167.08 82.0925 166.948 81.7805 166.82C81.4685 166.692 81.1965 166.496 80.9645 166.232C80.7405 165.968 80.6285 165.62 80.6285 165.188C80.6285 164.836 80.7325 164.516 80.9405 164.228C81.1485 163.932 81.4445 163.7 81.8285 163.532C82.2205 163.364 82.6685 163.28 83.1725 163.28C83.9245 163.28 84.5285 163.472 84.9845 163.856C85.4485 164.232 85.6965 164.748 85.7285 165.404H84.3605C84.3365 165.108 84.2165 164.872 84.0005 164.696C83.7845 164.52 83.4925 164.432 83.1245 164.432C82.7645 164.432 82.4885 164.5 82.2965 164.636C82.1045 164.772 82.0085 164.952 82.0085 165.176C82.0085 165.352 82.0725 165.5 82.2005 165.62C82.3285 165.74 82.4845 165.836 82.6685 165.908C82.8525 165.972 83.1245 166.056 83.4845 166.16C83.9645 166.288 84.3565 166.42 84.6605 166.556C84.9725 166.684 85.2405 166.876 85.4645 167.132C85.6885 167.388 85.8045 167.728 85.8125 168.152C85.8125 168.528 85.7085 168.864 85.5005 169.16C85.2925 169.456 84.9965 169.688 84.6125 169.856C84.2365 170.024 83.7925 170.108 83.2805 170.108Z" fill="#424040"/>
<rect x="244" y="233" width="43" height="40" rx="15" fill="#8A70D6"/>
<g filter="url(#filter1_b_120_422)">
<path d="M259.635 246.88C258.793 246.227 258.793 245.17 259.607 244.495C260.028 244.157 260.562 244 261.123 244C261.657 244 262.19 244.157 262.583 244.495L272.382 252.302C272.775 252.617 273 253.044 273 253.494C273 253.944 272.775 254.372 272.382 254.687L262.583 262.494C261.769 263.169 260.45 263.169 259.607 262.494C258.793 261.841 258.793 260.761 259.635 260.109L267.918 253.494L259.635 246.88Z" fill="#FBFBFB"/>
<path d="M259.698 246.802L259.698 246.802L259.697 246.801C259.297 246.491 259.103 246.091 259.1 245.695C259.097 245.299 259.284 244.893 259.67 244.572C260.071 244.252 260.581 244.1 261.123 244.1C261.639 244.1 262.147 244.252 262.518 244.571L262.518 244.571L262.521 244.573L272.32 252.38C272.32 252.38 272.32 252.38 272.32 252.38C272.693 252.679 272.9 253.079 272.9 253.494C272.9 253.909 272.693 254.31 272.32 254.609C272.32 254.609 272.32 254.609 272.32 254.609L262.521 262.416L262.521 262.416L262.52 262.417C261.743 263.061 260.476 263.062 259.67 262.416C259.284 262.107 259.097 261.702 259.1 261.302C259.103 260.903 259.297 260.497 259.697 260.188L259.698 260.187L267.98 253.573L268.078 253.494L267.98 253.416L259.698 246.802Z" stroke="url(#paint0_linear_120_422)" stroke-opacity="0.5" stroke-width="0.2"/>
</g>
</g>
<defs>
<filter id="filter0_d_120_422" x="0" y="0" width="305" height="293" filterUnits="userSpaceOnUse" color-interpolation-filters="sRGB">
<feFlood flood-opacity="0" result="BackgroundImageFix"/>
<feColorMatrix in="SourceAlpha" type="matrix" values="0 0 0 0 0 0 0 0 0 0 0 0 0 0 0 0 0 0 127 0" result="hardAlpha"/>
<feOffset dy="4"/>
<feGaussianBlur stdDeviation="2"/>
<feComposite in2="hardAlpha" operator="out"/>
<feColorMatrix type="matrix" values="0 0 0 0 0 0 0 0 0 0 0 0 0 0 0 0 0 0 0.25 0"/>
<feBlend mode="normal" in2="BackgroundImageFix" result="effect1_dropShadow_120_422"/>
<feBlend mode="normal" in="SourceGraphic" in2="effect1_dropShadow_120_422" result="shape"/>
</filter>
<filter id="filter1_b_120_422" x="244" y="229" width="44" height="49" filterUnits="userSpaceOnUse" color-interpolation-filters="sRGB">
<feFlood flood-opacity="0" result="BackgroundImageFix"/>
<feGaussianBlur in="BackgroundImageFix" stdDeviation="7.5"/>
<feComposite in2="SourceAlpha" operator="in" result="effect1_backgroundBlur_120_422"/>
<feBlend mode="normal" in="SourceGraphic" in2="effect1_backgroundBlur_120_422" result="shape"/>
</filter>
<linearGradient id="paint0_linear_120_422" x1="260.508" y1="250.374" x2="272.396" y2="250.422" gradientUnits="userSpaceOnUse">
<stop stop-color="white"/>
<stop offset="1" stop-color="white" stop-opacity="0"/>
</linearGradient>
</defs>
</svg>
