<svg width="14" height="19" viewBox="0 0 14 19" fill="none" xmlns="http://www.w3.org/2000/svg">
<g filter="url(#filter0_b_117_43)">
<path d="M0.63529 2.87981C-0.207024 2.22735 -0.207024 1.16992 0.607212 0.494967C1.02837 0.15749 1.56183 0 2.12338 0C2.65684 0 3.19031 0.15749 3.58339 0.494967L13.3823 8.30195C13.7754 8.61693 14 9.0444 14 9.49438C14 9.94435 13.7754 10.3718 13.3823 10.6868L3.58339 18.4938C2.76915 19.1687 1.44953 19.1687 0.607212 18.4938C-0.207024 17.8413 -0.207024 16.7614 0.63529 16.1089L8.91804 9.49438L0.63529 2.87981Z" fill="#FBFBFB"/>
<path d="M0.697692 2.80167L0.697699 2.80166L0.696527 2.80075C0.296786 2.49111 0.103273 2.09127 0.100041 1.69501C0.0968083 1.29864 0.28389 0.893149 0.670393 0.572484C1.07059 0.252082 1.58051 0.1 2.12338 0.1C2.63869 0.1 3.14723 0.252303 3.51825 0.57084L3.5182 0.570891L3.52108 0.573179L13.3198 8.37999C13.3198 8.38002 13.3198 8.38005 13.3199 8.38008C13.693 8.67912 13.9 9.07935 13.9 9.49438C13.9 9.9094 13.693 10.3096 13.3199 10.6087C13.3198 10.6087 13.3198 10.6087 13.3198 10.6088L3.52108 18.4156L3.52106 18.4156L3.51957 18.4168C2.74296 19.0606 1.47615 19.0619 0.669744 18.4157C0.284284 18.1069 0.0968024 17.7019 0.100041 17.3022C0.103279 16.9026 0.297221 16.4973 0.696534 16.188L0.697692 16.1871L8.98044 9.57252L9.07829 9.49438L8.98044 9.41623L0.697692 2.80167Z" stroke="url(#paint0_linear_117_43)" stroke-opacity="0.5" stroke-width="0.2"/>
</g>
<defs>
<filter id="filter0_b_117_43" x="-15" y="-15" width="44" height="49" filterUnits="userSpaceOnUse" color-interpolation-filters="sRGB">
<feFlood flood-opacity="0" result="BackgroundImageFix"/>
<feGaussianBlur in="BackgroundImageFix" stdDeviation="7.5"/>
<feComposite in2="SourceAlpha" operator="in" result="effect1_backgroundBlur_117_43"/>
<feBlend mode="normal" in="SourceGraphic" in2="effect1_backgroundBlur_117_43" result="shape"/>
</filter>
<linearGradient id="paint0_linear_117_43" x1="1.50811" y1="6.37358" x2="13.3962" y2="6.42194" gradientUnits="userSpaceOnUse">
<stop stop-color="white"/>
<stop offset="1" stop-color="white" stop-opacity="0"/>
</linearGradient>
</defs>
</svg>
