<svg width="20" height="15" viewBox="0 0 20 15" fill="none" xmlns="http://www.w3.org/2000/svg">
<g filter="url(#filter0_b_198_714)">
<path d="M16.6931 1.21268C17.3553 0.377994 18.4126 0.39026 19.0781 1.21227C19.4107 1.63731 19.562 2.17257 19.5554 2.73407C19.5493 3.2675 19.3856 3.79911 19.0436 4.18825L11.1235 13.8959C10.8039 14.2853 10.3739 14.505 9.92396 14.4998C9.47401 14.4946 9.04918 14.265 8.73878 13.8683L1.04597 3.97948C0.380509 3.15747 0.395815 1.83793 1.0805 1.0035C1.74235 0.196887 2.82221 0.209413 3.46485 1.05924L9.9829 9.41816L16.6931 1.21268Z" fill="#FBFBFB"/>
<path d="M16.7705 1.27599L16.7705 1.276L16.7714 1.27483C17.0857 0.878712 17.4878 0.68985 17.884 0.691214C18.2804 0.692579 18.6837 0.884351 18.9999 1.27455C19.3156 1.67843 19.4618 2.19008 19.4555 2.73291C19.4495 3.24819 19.2913 3.75493 18.9685 4.12223L18.9684 4.12218L18.9661 4.12503L11.0462 13.8325C11.0461 13.8326 11.0461 13.8326 11.0461 13.8326C10.7427 14.2023 10.3401 14.4046 9.92511 14.3998C9.51012 14.395 9.11231 14.1833 8.81762 13.8068C8.81759 13.8067 8.81757 13.8067 8.81754 13.8067L1.12491 3.91807L1.12492 3.91806L1.1237 3.91655C0.488985 3.13253 0.502313 1.86579 1.1578 1.06693C1.47113 0.685082 1.87828 0.502311 2.27791 0.510186C2.67741 0.518058 3.08044 0.716688 3.38508 1.11956L3.38599 1.12073L9.90404 9.47965L9.98104 9.5784L10.0603 9.48146L16.7705 1.27599Z" stroke="url(#paint0_linear_198_714)" stroke-opacity="0.5" stroke-width="0.2"/>
</g>
<defs>
<filter id="filter0_b_198_714" x="-14.4434" y="-14.5898" width="48.999" height="44.0898" filterUnits="userSpaceOnUse" color-interpolation-filters="sRGB">
<feFlood flood-opacity="0" result="BackgroundImageFix"/>
<feGaussianBlur in="BackgroundImageFix" stdDeviation="7.5"/>
<feComposite in2="SourceAlpha" operator="in" result="effect1_backgroundBlur_198_714"/>
<feBlend mode="normal" in="SourceGraphic" in2="effect1_backgroundBlur_198_714" result="shape"/>
</filter>
<linearGradient id="paint0_linear_198_714" x1="13.1894" y1="2.04492" x2="13.0032" y2="13.9317" gradientUnits="userSpaceOnUse">
<stop stop-color="white"/>
<stop offset="1" stop-color="white" stop-opacity="0"/>
</linearGradient>
</defs>
</svg>
