<svg width="37" height="41" viewBox="0 0 37 41" fill="none" xmlns="http://www.w3.org/2000/svg">
<path d="M34.1667 40.9168H2.83333C1.75178 40.9168 0.875 40.0028 0.875 38.8752V2.12516C0.875 0.997591 1.75178 0.0834961 2.83333 0.0834961H34.1667C35.2483 0.0834961 36.125 0.997591 36.125 2.12516V38.8752C36.125 40.0028 35.2483 40.9168 34.1667 40.9168ZM32.2083 36.8335V4.16683H4.79167V36.8335H32.2083ZM8.70833 8.25016H16.5417V16.4168H8.70833V8.25016ZM8.70833 20.5002H28.2917V24.5835H8.70833V20.5002ZM8.70833 28.6668H28.2917V32.7502H8.70833V28.6668ZM20.4583 10.2918H28.2917V14.3752H20.4583V10.2918Z" fill="#8A70D6"/>
</svg>
