<svg width="20" height="20" viewBox="0 0 20 20" fill="none" xmlns="http://www.w3.org/2000/svg">
<path d="M15.7834 14.144L20 18.0929L18.6076 19.3968L14.3911 15.448C12.875 16.584 10.9522 17.2635 8.86102 17.2635C3.96973 17.2635 0 13.5458 0 8.9651C0 4.38438 3.96973 0.666687 8.86102 0.666687C13.7523 0.666687 17.722 4.38438 17.722 8.9651C17.722 10.9235 16.9964 12.7242 15.7834 14.144ZM13.8081 13.4599C15.012 12.2979 15.7529 10.7129 15.7529 8.9651C15.7529 5.39909 12.6688 2.51078 8.86102 2.51078C5.05324 2.51078 1.96911 5.39909 1.96911 8.9651C1.96911 12.5311 5.05324 15.4194 8.86102 15.4194C10.7273 15.4194 12.4198 14.7256 13.6605 13.5981L13.8081 13.4599Z" fill="#424040"/>
</svg>
